<?xml version="1.0" encoding="utf-8"?>
<!-- Generator: Adobe Illustrator 16.0.0, SVG Export Plug-In . SVG Version: 6.00 Build 0)  -->
<!DOCTYPE svg PUBLIC "-//W3C//DTD SVG 1.0//EN" "http://www.w3.org/TR/2001/REC-SVG-20010904/DTD/svg10.dtd">
<svg version="1.0" id="Layer_1" xmlns="http://www.w3.org/2000/svg" xmlns:xlink="http://www.w3.org/1999/xlink" x="0px" y="0px"
	 width="100px" height="100px" viewBox="0 0 100 100" enable-background="new 0 0 100 100" xml:space="preserve">
<path fill="#8BC34A" d="M49.999,38c-6.625,0-12,5.371-12,11.998c0,6.626,5.375,12,12,12c6.628,0,11.999-5.374,11.999-12
	C61.998,43.371,56.627,38,49.999,38z M49.999,53.998c-2.211,0-4-1.789-4-4c0-2.21,1.788-3.998,4-3.998
	c2.211,0,3.999,1.788,3.999,3.998C53.998,52.209,52.21,53.998,49.999,53.998z"/>
<rect x="8.059" y="71.656" transform="matrix(0.7071 -0.7071 0.7071 0.7071 -46.3648 39.3686)" fill="#263238" width="32.569" height="7.999"/>
<rect x="59.372" y="71.653" transform="matrix(-0.7071 -0.7071 0.7071 -0.7071 75.6579 182.6432)" fill="#263238" width="32.57" height="7.998"/>
<rect x="59.367" y="20.346" transform="matrix(-0.7071 0.7071 -0.7071 -0.7071 146.3622 -11.9331)" fill="#263238" width="32.57" height="7.997"/>
<rect x="8.059" y="20.346" transform="matrix(0.7071 0.7071 -0.7071 0.7071 24.3457 -10.0836)" fill="#263238" width="32.57" height="7.998"/>
</svg>
