<?xml version="1.0" encoding="utf-8"?>
<!-- Generator: Adobe Illustrator 27.1.1, SVG Export Plug-In . SVG Version: 6.00 Build 0)  -->
<svg version="1.1" id="Warstwa_1" xmlns="http://www.w3.org/2000/svg" xmlns:xlink="http://www.w3.org/1999/xlink" x="0px" y="0px"
	 viewBox="0 0 100 100" style="enable-background:new 0 0 100 100;" xml:space="preserve">
<path d="M6.5,66.9c2.3-4.8,1.5-9.8-0.9-12.1c-1.2-1.2-3-1.2-4.8,0.4C3.9,58.3,6.8,61.4,6.5,66.9z M9.7,62.4c2.1-3.9,2.6-8,0.8-9.8
	c-0.8-0.9-2.5-0.5-3.6,0.6C9.1,55.4,10,58.5,9.7,62.4z M1.5,69.1c-0.2-2.4-0.6-4.5-1.5-6.2v5.9C0.4,68.8,0.9,68.9,1.5,69.1z
	 M3.2,69.3c1.5-2.4,1.4-6,0.1-7.9c-0.6-0.9-1.5-1.4-2.8-1.1C2.5,62.8,3.1,65.4,3.2,69.3z M13.1,58.7c2.4-3.3,3.5-6,2.1-7.4
	c-0.7-0.7-2-0.7-3.1,0.4C13.6,53.3,13.7,55.4,13.1,58.7z M0,79.8c3,0,4.4-1.4,4.4-4.6C4.4,72,3,70.6,0,70.6V74
	c3.3,0,3.8,0.5,3.8,1.2c0,0.7-0.5,1.2-3.8,1.2V79.8z M23.5,63.1c1.1-1.1,1.1-2.4,0.4-3.1c-1.4-1.4-4.1-0.3-7.4,2.1
	C19.8,61.5,21.9,61.6,23.5,63.1z M14.9,74.7c0.3-1.3-0.2-2.2-1.1-2.8c-1.9-1.3-5.5-1.4-7.9,0.1C9.8,72.1,12.4,72.7,14.9,74.7z
	 M22,68.3c1.1-1.1,1.5-2.8,0.6-3.6c-1.8-1.8-5.9-1.3-9.8,0.8C16.7,65.2,19.8,66.1,22,68.3z M6.1,76.6c2.3-0.2,4.4-0.7,6.1-1.5
	c-1.7-0.9-3.8-1.3-6.1-1.5C6.4,74.8,6.4,75.5,6.1,76.6z M0,87.2c1-1.7,1.3-3.7,1.5-6c-0.6,0.2-1,0.2-1.5,0.2V87.2z M20,74.4
	c1.6-1.8,1.6-3.6,0.4-4.8c-2.3-2.4-7.3-3.2-12.1-0.9C13.8,68.4,16.9,71.3,20,74.4z M13.8,78.4c0.9-0.6,1.4-1.5,1.1-2.8
	c-2.5,2-5.1,2.6-9,2.7C8.3,79.8,11.9,79.7,13.8,78.4z M0.5,90c1.3,0.3,2.2-0.2,2.8-1.1C4.6,87,4.7,83.4,3.2,81
	C3.1,84.9,2.5,87.5,0.5,90z M8.3,81.6c4.8,2.3,9.8,1.5,12.1-0.9c1.2-1.2,1.2-3-0.4-4.8C16.9,79,13.8,81.9,8.3,81.6z M5.6,95.5
	c2.4-2.3,3.2-7.3,0.9-12.1c0.3,5.5-2.6,8.6-5.7,11.7C2.6,96.7,4.4,96.7,5.6,95.5z M22.6,85.6c0.9-0.8,0.5-2.5-0.6-3.6
	c-2.2,2.2-5.3,3.1-9.2,2.8C16.7,86.9,20.8,87.4,22.6,85.6z M10.5,97.7c1.8-1.8,1.3-5.9-0.8-9.8c0.3,3.9-0.6,7-2.8,9.2
	C8,98.2,9.7,98.6,10.5,97.7z M23,98.2c1.2-1.2,0.6-2.5-0.4-3.5C20,92,15.2,88.9,4.5,79.3l-0.3,0.3c9.6,10.7,12.7,15.6,15.3,18.2
	C20.5,98.8,21.8,99.4,23,98.2z M23.9,90.3c0.7-0.7,0.7-2-0.4-3.1c-1.6,1.5-3.7,1.6-7,1C19.8,90.6,22.5,91.7,23.9,90.3z M15.2,99
	c1.4-1.4,0.3-4.1-2.1-7.4c0.6,3.3,0.5,5.4-1,7C13.2,99.7,14.5,99.7,15.2,99z M4.5,71c10.7-9.6,15.6-12.7,18.2-15.3
	c1-1,1.6-2.3,0.4-3.5c-1.2-1.2-2.5-0.6-3.5,0.4c-2.7,2.6-5.8,7.4-15.4,18.1L4.5,71z M6.5,16.8C8.8,12,8,7,5.6,4.7
	c-1.2-1.2-3-1.2-4.8,0.4C3.9,8.2,6.8,11.3,6.5,16.8z M9.7,12.3c2.1-3.9,2.6-8,0.8-9.8C9.7,1.6,8,2,6.9,3.1C9.1,5.3,10,8.4,9.7,12.3z
	 M1.5,19c-0.2-2.4-0.6-4.5-1.5-6.2v5.9C0.4,18.7,0.9,18.8,1.5,19z M3.2,19.2c1.5-2.4,1.4-6,0.1-7.9c-0.6-0.9-1.5-1.4-2.8-1.1
	C2.5,12.7,3.1,15.3,3.2,19.2z M13.1,8.6c2.4-3.3,3.5-6,2.1-7.4c-0.7-0.7-2-0.7-3.1,0.4C13.6,3.2,13.7,5.3,13.1,8.6z M0,29.7
	c3,0,4.4-1.4,4.4-4.6S3,20.5,0,20.5v3.4c3.3,0,3.8,0.5,3.8,1.2c0,0.7-0.5,1.2-3.8,1.2V29.7z M23.5,13c1.1-1.1,1.1-2.4,0.4-3.1
	c-1.4-1.4-4.1-0.3-7.4,2.1C19.8,11.4,21.9,11.5,23.5,13z M14.9,24.6c0.3-1.3-0.2-2.2-1.1-2.8c-1.9-1.3-5.5-1.4-7.9,0.1
	C9.8,22,12.4,22.6,14.9,24.6z M22,18.2c1.1-1.1,1.5-2.8,0.6-3.6c-1.8-1.8-5.9-1.3-9.8,0.8C16.7,15.1,19.8,16,22,18.2z M6.1,26.5
	c2.3-0.2,4.4-0.7,6.1-1.5c-1.7-0.9-3.8-1.3-6.1-1.5C6.4,24.7,6.4,25.4,6.1,26.5z M0,37.1c1-1.7,1.3-3.7,1.5-6
	c-0.6,0.2-1,0.2-1.5,0.2V37.1z M20,24.3c1.6-1.8,1.6-3.6,0.4-4.8c-2.3-2.4-7.3-3.2-12.1-0.9C13.8,18.3,16.9,21.2,20,24.3z
	 M13.8,28.3c0.9-0.6,1.4-1.5,1.1-2.8c-2.5,2-5.1,2.6-9,2.7C8.3,29.7,11.9,29.6,13.8,28.3z M0.5,39.9c1.3,0.3,2.2-0.2,2.8-1.1
	c1.3-1.9,1.4-5.5-0.1-7.9C3.1,34.8,2.5,37.4,0.5,39.9z M8.3,31.5c4.8,2.3,9.8,1.5,12.1-0.9c1.2-1.2,1.2-3-0.4-4.8
	C16.9,28.9,13.8,31.8,8.3,31.5z M5.6,45.4c2.4-2.3,3.2-7.3,0.9-12.1c0.3,5.5-2.6,8.6-5.7,11.7C2.6,46.6,4.4,46.6,5.6,45.4z
	 M22.6,35.5c0.9-0.8,0.5-2.5-0.6-3.6c-2.2,2.2-5.3,3.1-9.2,2.8C16.7,36.8,20.8,37.3,22.6,35.5z M10.5,47.6c1.8-1.8,1.3-5.9-0.8-9.8
	c0.3,3.9-0.6,7-2.8,9.2C8,48.1,9.7,48.5,10.5,47.6z M23,48.1c1.2-1.2,0.6-2.5-0.4-3.5c-2.6-2.7-7.4-5.8-18.1-15.4l-0.3,0.3
	c9.6,10.7,12.7,15.6,15.3,18.2C20.5,48.7,21.8,49.3,23,48.1z M23.9,40.2c0.7-0.7,0.7-2-0.4-3.1c-1.6,1.5-3.7,1.6-7,1
	C19.8,40.5,22.5,41.6,23.9,40.2z M15.2,48.9c1.4-1.4,0.3-4.1-2.1-7.4c0.6,3.3,0.5,5.4-1,7C13.2,49.6,14.5,49.6,15.2,48.9z M4.5,20.9
	C15.2,11.3,20.1,8.2,22.7,5.6c1-1,1.6-2.3,0.4-3.5c-1.2-1.2-2.5-0.6-3.5,0.4c-2.7,2.6-5.8,7.4-15.4,18.1L4.5,20.9z M93.5,66.9
	L93.5,66.9c-0.3-5.5,2.6-8.6,5.7-11.7c-1.8-1.6-3.6-1.6-4.8-0.4C92,57.1,91.2,62.1,93.5,66.9z M90.3,62.4L90.3,62.4
	c-0.3-3.9,0.6-7,2.8-9.2c-1.1-1.1-2.8-1.5-3.6-0.6C87.7,54.4,88.2,58.5,90.3,62.4z M98.5,69.1c0.6-0.2,1.1-0.3,1.5-0.3v-5.9
	C99.1,64.6,98.7,66.7,98.5,69.1z M96.8,69.3c0.1-3.9,0.7-6.5,2.7-9c-1.3-0.3-2.2,0.2-2.8,1.1C95.4,63.3,95.3,66.9,96.8,69.3z
	 M86.9,58.7L86.9,58.7c-0.6-3.3-0.5-5.4,1-7c-1.1-1.1-2.4-1.1-3.1-0.4C83.4,52.7,84.5,55.4,86.9,58.7z M100,79.8v-3.4
	c-3.3,0-3.8-0.5-3.8-1.2c0-0.7,0.5-1.2,3.8-1.2v-3.4c-3,0-4.4,1.4-4.4,4.6C95.6,78.4,97,79.8,100,79.8z M76.5,63.1
	c1.6-1.5,3.7-1.6,7-1c-3.3-2.4-6-3.5-7.4-2.1C75.4,60.7,75.4,62,76.5,63.1z M85.1,74.7c2.5-2,5.1-2.6,9-2.7c-2.4-1.5-6-1.4-7.9-0.1
	C85.3,72.5,84.8,73.4,85.1,74.7z M78,68.3c2.2-2.2,5.3-3.1,9.2-2.8c-3.9-2.1-8-2.6-9.8-0.8C76.5,65.5,76.9,67.2,78,68.3z M93.9,76.6
	c-0.3-1.1-0.3-1.8,0-3c-2.3,0.2-4.4,0.6-6.1,1.5C89.5,75.9,91.6,76.4,93.9,76.6z M100,87.2v-5.8c-0.5,0-0.9,0-1.5-0.2
	C98.7,83.5,99,85.5,100,87.2z M80,74.4c3.1-3.1,6.2-6,11.7-5.7c-4.8-2.3-9.8-1.5-12.1,0.9C78.4,70.8,78.4,72.6,80,74.4z M86.2,78.4
	c1.9,1.3,5.5,1.4,7.9-0.1c-3.9-0.1-6.5-0.7-9-2.7C84.8,76.9,85.3,77.8,86.2,78.4z M99.5,90c-2-2.5-2.6-5.1-2.7-9
	c-1.5,2.4-1.4,6-0.1,7.9C97.3,89.8,98.2,90.3,99.5,90z M91.7,81.6L91.7,81.6c-5.5,0.3-8.6-2.6-11.7-5.7c-1.6,1.8-1.6,3.6-0.4,4.8
	C81.9,83.1,86.9,83.9,91.7,81.6z M94.4,95.5c1.2,1.2,3,1.2,4.8-0.4c-3.1-3.1-6-6.2-5.7-11.7C91.2,88.2,92,93.2,94.4,95.5z
	 M77.4,85.6c1.8,1.8,5.9,1.3,9.8-0.8c-3.9,0.3-7-0.6-9.2-2.8C76.9,83.1,76.5,84.8,77.4,85.6z M89.5,97.7c0.8,0.9,2.5,0.5,3.6-0.6
	c-2.2-2.2-3.1-5.3-2.8-9.2C88.2,91.8,87.7,95.9,89.5,97.7z M77,98.2c1.2,1.2,2.5,0.6,3.5-0.4c2.6-2.6,5.7-7.5,15.3-18.2l-0.3-0.3
	C84.8,88.9,80,92,77.4,94.7C76.4,95.7,75.8,97,77,98.2z M76.1,90.3c1.4,1.4,4.1,0.3,7.4-2.1c-3.3,0.6-5.4,0.5-7-1
	C75.4,88.3,75.4,89.6,76.1,90.3z M84.8,99c0.7,0.7,2,0.7,3.1-0.4c-1.5-1.6-1.6-3.7-1-7C84.5,94.9,83.4,97.6,84.8,99z M95.5,71
	l0.3-0.3C86.2,60,83.1,55.2,80.4,52.6c-1-1-2.3-1.6-3.5-0.4c-1.2,1.2-0.6,2.5,0.4,3.5C79.9,58.3,84.8,61.4,95.5,71z M93.5,16.8
	L93.5,16.8c-0.3-5.5,2.6-8.6,5.7-11.7c-1.8-1.6-3.6-1.6-4.8-0.4C92,7,91.2,12,93.5,16.8z M90.3,12.3L90.3,12.3
	c-0.3-3.9,0.6-7,2.8-9.2C92,2,90.3,1.6,89.5,2.5C87.7,4.3,88.2,8.4,90.3,12.3z M98.5,19c0.6-0.2,1.1-0.3,1.5-0.3v-5.9
	C99.1,14.5,98.7,16.6,98.5,19z M96.8,19.2c0.1-3.9,0.7-6.5,2.7-9c-1.3-0.3-2.2,0.2-2.8,1.1C95.4,13.2,95.3,16.8,96.8,19.2z
	 M86.9,8.6L86.9,8.6c-0.6-3.3-0.5-5.4,1-7c-1.1-1.1-2.4-1.1-3.1-0.4C83.4,2.6,84.5,5.3,86.9,8.6z M100,29.7v-3.4
	c-3.3,0-3.8-0.5-3.8-1.2c0-0.7,0.5-1.2,3.8-1.2v-3.4c-3,0-4.4,1.4-4.4,4.6S97,29.7,100,29.7z M76.5,13c1.6-1.5,3.7-1.6,7-1
	c-3.3-2.4-6-3.5-7.4-2.1C75.4,10.6,75.4,11.9,76.5,13z M85.1,24.6c2.5-2,5.1-2.6,9-2.7c-2.4-1.5-6-1.4-7.9-0.1
	C85.3,22.4,84.8,23.3,85.1,24.6z M78,18.2c2.2-2.2,5.3-3.1,9.2-2.8c-3.9-2.1-8-2.6-9.8-0.8C76.5,15.4,76.9,17.1,78,18.2z M93.9,26.5
	c-0.3-1.1-0.3-1.8,0-3c-2.3,0.2-4.4,0.6-6.1,1.5C89.5,25.8,91.6,26.3,93.9,26.5z M100,37.1v-5.8c-0.5,0-0.9,0-1.5-0.2
	C98.7,33.4,99,35.4,100,37.1z M80,24.3c3.1-3.1,6.2-6,11.7-5.7c-4.8-2.3-9.8-1.5-12.1,0.9C78.4,20.7,78.4,22.5,80,24.3z M86.2,28.3
	c1.9,1.3,5.5,1.4,7.9-0.1c-3.9-0.1-6.5-0.7-9-2.7C84.8,26.8,85.3,27.7,86.2,28.3z M99.5,39.9c-2-2.5-2.6-5.1-2.7-9
	c-1.5,2.4-1.4,6-0.1,7.9C97.3,39.7,98.2,40.2,99.5,39.9z M58.2,6.5C63,8.8,68,8,70.3,5.6c1.2-1.2,1.2-3-0.4-4.8
	C66.8,3.9,63.7,6.8,58.2,6.5z M72.5,10.5C73.4,9.7,73,8,71.9,6.9c-2.2,2.2-5.3,3.1-9.2,2.8C66.6,11.8,70.7,12.3,72.5,10.5z
	 M56.1,1.6c2.3-0.3,4.3-0.6,6-1.6h-5.8C56.3,0.5,56.3,1,56.1,1.6z M63.7,3.3c0.9-0.5,1.4-1.5,1.1-2.8c-2.5,2-5.1,2.6-9,2.7
	C58.2,4.7,61.7,4.4,63.7,3.3z M73.8,15.2c0.7-0.7,0.7-2-0.4-3.1c-1.6,1.5-3.7,1.6-7,1C69.7,15.5,72.4,16.6,73.8,15.2z M91.7,31.5
	L91.7,31.5c-5.5,0.3-8.6-2.6-11.7-5.7c-1.6,1.8-1.6,3.6-0.4,4.8C81.9,33,86.9,33.8,91.7,31.5z M94.4,45.4c1.2,1.2,3,1.2,4.8-0.4
	c-3.1-3.1-6-6.2-5.7-11.7C91.2,38.1,92,43.1,94.4,45.4z M73,23c1.2-1.2,0.6-2.5-0.4-3.5c-2.6-2.7-7.5-5.7-18.2-15.3l-0.3,0.3
	C63.7,15.2,66.9,20,69.5,22.6C70.5,23.6,71.8,24.2,73,23z M50,4.6c3,0,4.4-1.4,4.4-4.6h-0.5c0,0.7-0.6,1.2-3.9,1.2S46.2,0.7,46.2,0
	h-0.6C45.6,3.2,47,4.6,50,4.6z M77.4,35.5c1.8,1.8,5.9,1.3,9.8-0.8c-3.9,0.3-7-0.6-9.2-2.8C76.9,33,76.5,34.7,77.4,35.5z M89.5,47.6
	c0.8,0.9,2.5,0.5,3.6-0.6c-2.2-2.2-3.1-5.3-2.8-9.2C88.2,41.7,87.7,45.8,89.5,47.6z M77,48.1c1.2,1.2,2.5,0.6,3.5-0.4
	c2.6-2.6,5.7-7.5,15.3-18.2l-0.3-0.3C84.8,38.8,80,41.9,77.4,44.6C76.4,45.6,75.8,46.9,77,48.1z M65.1,23.9c1.4-1.4,0.3-4.1-2.1-7.4
	c0.6,3.3,0.5,5.4-1,7C63.1,24.6,64.4,24.6,65.1,23.9z M50.4,14.9c1.3,0.3,2.2-0.2,2.8-1.1c1.3-1.9,1.4-5.5-0.1-7.9
	C53,9.8,52.4,12.4,50.4,14.9z M60.4,22.6c1.8-1.8,1.3-5.9-0.8-9.8c0.3,3.9-0.6,7-2.8,9.2C57.9,23.1,59.6,23.5,60.4,22.6z M50,12.3
	c0.8-1.7,1.2-3.8,1.5-6.1c-1.1,0.3-1.8,0.3-3-0.1C48.7,8.5,49.1,10.6,50,12.3z M76.1,40.2c1.4,1.4,4.1,0.3,7.4-2.1
	c-3.3,0.6-5.4,0.5-7-1C75.4,38.2,75.4,39.5,76.1,40.2z M84.8,48.9c0.7,0.7,2,0.7,3.1-0.4c-1.5-1.6-1.6-3.7-1-7
	C84.5,44.8,83.4,47.5,84.8,48.9z M43.9,1.6C43.7,1,43.7,0.5,43.7,0h-5.9C39.5,0.9,41.6,1.4,43.9,1.6z M55.5,20.4
	c2.4-2.3,3.2-7.3,0.9-12.1c0.3,5.5-2.6,8.6-5.7,11.7C52.5,21.6,54.3,21.6,55.5,20.4z M49.5,14.9c-2-2.5-2.6-5.1-2.7-9
	c-1.5,2.4-1.4,6-0.1,7.9C47.3,14.7,48.2,15.2,49.5,14.9z M36.2,3.3c2,1.1,5.5,1.4,7.9-0.1c-3.9-0.1-6.5-0.7-9-2.7
	C34.8,1.8,35.3,2.8,36.2,3.3z M63,33.6c2.4-3.3,3.5-6,2.1-7.4c-0.7-0.7-2-0.7-3.1,0.4C63.5,28.2,63.6,30.3,63,33.6z M73.4,38
	c1.1-1.1,1.1-2.4,0.4-3.1c-1.4-1.4-4.1-0.3-7.4,2.1C69.7,36.4,71.8,36.5,73.4,38z M44.4,20.4c1.2,1.2,3,1.2,4.8-0.4
	c-3.1-3.1-6-6.2-5.7-11.7C41.2,13.1,42,18.1,44.4,20.4z M41.7,6.5L41.7,6.5C36.2,6.8,33.1,3.9,30,0.8c-1.6,1.8-1.6,3.6-0.4,4.8
	C31.9,8,36.9,8.8,41.7,6.5z M54.4,45.9C65.1,36.3,70,33.3,72.6,30.6c1-1,1.6-2.3,0.4-3.5c-1.2-1.2-2.5-0.6-3.5,0.4
	c-2.6,2.6-5.8,7.4-15.4,18.1L54.4,45.9z M59.6,37.3c2.1-3.9,2.6-8,0.8-9.8c-0.8-0.9-2.5-0.5-3.6,0.6C59,30.3,59.9,33.4,59.6,37.3z
	 M71.9,43.2c1.1-1.1,1.5-2.8,0.6-3.6c-1.8-1.8-5.9-1.3-9.8,0.8C66.6,40.1,69.7,41,71.9,43.2z M39.5,22.6c0.8,0.9,2.5,0.5,3.6-0.6
	c-2.2-2.2-3.1-5.3-2.8-9.2C38.2,16.7,37.7,20.8,39.5,22.6z M27.4,10.5c1.8,1.8,5.9,1.3,9.8-0.8c-3.9,0.3-7-0.6-9.2-2.8
	C26.9,8,26.5,9.7,27.4,10.5z M26.9,23c1.2,1.2,2.5,0.6,3.5-0.4c2.7-2.6,5.8-7.4,15.4-18.1l-0.3-0.3c-10.7,9.6-15.6,12.7-18.2,15.3
	C26.3,20.5,25.7,21.8,26.9,23z M56.4,41.8c2.3-4.8,1.5-9.8-0.9-12.1c-1.2-1.2-3-1.2-4.8,0.4C53.8,33.2,56.7,36.3,56.4,41.8z
	 M69.9,49.3c1.6-1.8,1.6-3.6,0.4-4.8c-2.3-2.4-7.3-3.2-12.1-0.9C63.7,43.3,66.8,46.2,69.9,49.3z M34.8,23.9c0.7,0.7,2,0.7,3.1-0.4
	c-1.5-1.6-1.6-3.7-1-7C34.5,19.8,33.4,22.5,34.8,23.9z M26.1,15.2c1.4,1.4,4.1,0.3,7.4-2.1c-3.3,0.6-5.4,0.5-7-1
	C25.4,13.2,25.4,14.5,26.1,15.2z M53.1,44.2c1.5-2.4,1.4-6,0.1-7.9c-0.6-0.9-1.5-1.4-2.8-1.1C52.4,37.7,53,40.3,53.1,44.2z
	 M64.8,49.6c0.3-1.3-0.2-2.2-1.1-2.8c-1.9-1.3-5.5-1.4-7.9,0.1C59.7,47,62.3,47.6,64.8,49.6z M43.5,41.8L43.5,41.8
	c-0.3-5.5,2.6-8.6,5.7-11.7c-1.8-1.6-3.6-1.6-4.8-0.4C42,32,41.2,37,43.5,41.8z M58.2,56.5C63,58.8,68,58,70.3,55.6
	c1.2-1.2,1.2-3-0.4-4.8C66.8,53.9,63.7,56.8,58.2,56.5z M56.2,51.5c2.2-0.3,4.3-0.6,5.9-1.4c-1.7-1-3.7-1.3-6-1.6
	C56.4,49.6,56.4,50.3,56.2,51.5z M48.5,44c1.2-0.4,1.9-0.4,3-0.1c-0.3-2.3-0.7-4.4-1.5-6.1C49.1,39.5,48.7,41.6,48.5,44z M40.3,37.3
	L40.3,37.3c-0.3-3.9,0.6-7,2.8-9.2c-1.1-1.1-2.8-1.5-3.6-0.6C37.7,29.3,38.2,33.4,40.3,37.3z M72.5,60.5c0.9-0.8,0.5-2.5-0.6-3.6
	c-2.2,2.2-5.3,3.1-9.2,2.8C66.6,61.8,70.7,62.3,72.5,60.5z M46.8,44.2c0.1-3.9,0.7-6.5,2.7-9c-1.3-0.3-2.2,0.2-2.8,1.1
	C45.4,38.2,45.3,41.8,46.8,44.2z M63.7,53.3c0.9-0.6,1.4-1.5,1.1-2.8c-2.5,2-5.1,2.6-9,2.7C58.2,54.7,61.8,54.6,63.7,53.3z
	 M36.9,33.6L36.9,33.6c-0.6-3.3-0.5-5.4,1-7c-1.1-1.1-2.4-1.1-3.1-0.4C33.4,27.6,34.5,30.3,36.9,33.6z M73.8,65.2
	c0.7-0.7,0.7-2-0.4-3.1c-1.6,1.5-3.7,1.6-7,1C69.7,65.5,72.4,66.6,73.8,65.2z M50,51.3c-3.3,0-3.8-0.5-3.8-1.2
	c0-0.7,0.5-1.2,3.8-1.2s3.9,0.5,3.9,1.2C53.9,50.8,53.3,51.3,50,51.3z M50,54.7c3,0,4.4-1.4,4.4-4.6c0-3.2-1.4-4.6-4.4-4.6
	s-4.4,1.4-4.4,4.6C45.6,53.3,47,54.7,50,54.7z M45.5,45.9l0.3-0.3c-9.6-10.7-12.7-15.5-15.4-18.1c-1-1-2.3-1.6-3.5-0.4
	c-1.2,1.2-0.6,2.5,0.4,3.5C29.9,33.2,34.8,36.3,45.5,45.9z M72.9,73.1c1.2-1.2,0.6-2.5-0.4-3.5c-2.6-2.7-7.4-5.8-18.1-15.4l-0.3,0.3
	c9.6,10.7,12.7,15.6,15.3,18.2C70.4,73.7,71.7,74.3,72.9,73.1z M26.5,38c1.6-1.5,3.7-1.6,7-1c-3.3-2.4-6-3.5-7.4-2.1
	C25.4,35.6,25.4,36.9,26.5,38z M65.1,73.9c1.4-1.4,0.3-4.1-2.1-7.4c0.6,3.3,0.5,5.4-1,7C63.1,74.6,64.4,74.6,65.1,73.9z M35.1,49.6
	c2.5-2,5.1-2.6,9-2.7c-2.4-1.5-6-1.4-7.9-0.1C35.3,47.4,34.8,48.3,35.1,49.6z M50.4,64.9c1.3,0.3,2.2-0.2,2.8-1.1
	c1.3-1.9,1.4-5.5-0.1-7.9C53,59.8,52.4,62.4,50.4,64.9z M28,43.2c2.2-2.2,5.3-3.1,9.2-2.8c-3.9-2.1-8-2.6-9.8-0.8
	C26.5,40.4,26.9,42.1,28,43.2z M60.4,72.6c1.8-1.8,1.3-5.9-0.8-9.8c0.3,3.9-0.6,7-2.8,9.2C57.9,73.1,59.6,73.5,60.4,72.6z
	 M50.1,62.1c0.8-1.6,1.1-3.7,1.4-5.9c-1.2,0.2-1.9,0.2-3-0.1C48.7,58.4,49.1,60.4,50.1,62.1z M43.9,51.5c-0.3-1.1-0.3-1.8,0-3
	c-2.3,0.2-4.4,0.6-6.1,1.5C39.5,50.8,41.6,51.3,43.9,51.5z M30,49.3c3.1-3.1,6.2-6,11.7-5.7c-4.8-2.3-9.8-1.5-12.1,0.9
	C28.4,45.7,28.4,47.5,30,49.3z M55.5,70.4c2.4-2.3,3.2-7.3,0.9-12.1c0.3,5.5-2.6,8.6-5.7,11.7C52.5,71.6,54.3,71.6,55.5,70.4z
	 M36.2,53.3c1.9,1.3,5.5,1.4,7.9-0.1c-3.9-0.1-6.5-0.7-9-2.7C34.8,51.8,35.3,52.7,36.2,53.3z M49.5,64.9c-2-2.5-2.6-5.1-2.7-9
	c-1.5,2.4-1.4,6-0.1,7.9C47.3,64.7,48.2,65.2,49.5,64.9z M63,83.5c2.4-3.3,3.5-6,2.1-7.4c-0.7-0.7-2-0.7-3.1,0.4
	C63.5,78.1,63.6,80.2,63,83.5z M73.4,87.9c1.1-1.1,1.1-2.4,0.4-3.1c-1.4-1.4-4.1-0.3-7.4,2.1C69.7,86.3,71.8,86.4,73.4,87.9z
	 M41.7,56.5L41.7,56.5c-5.5,0.3-8.6-2.6-11.7-5.7c-1.6,1.8-1.6,3.6-0.4,4.8C31.9,58,36.9,58.8,41.7,56.5z M44.4,70.4
	c1.2,1.2,3,1.2,4.8-0.4c-3.1-3.1-6-6.2-5.7-11.7C41.2,63.1,42,68.1,44.4,70.4z M54.4,95.8C65.1,86.2,70,83.2,72.6,80.5
	c1-1,1.6-2.3,0.4-3.5s-2.5-0.6-3.5,0.4c-2.6,2.6-5.8,7.4-15.4,18.1L54.4,95.8z M59.6,87.2c2.1-3.9,2.6-8,0.8-9.8
	c-0.8-0.9-2.5-0.5-3.6,0.6C59,80.2,59.9,83.3,59.6,87.2z M71.9,93.1c1.1-1.1,1.5-2.8,0.6-3.6c-1.8-1.8-5.9-1.3-9.8,0.8
	C66.6,90,69.7,90.9,71.9,93.1z M27.4,60.5c1.8,1.8,5.9,1.3,9.8-0.8c-3.9,0.3-7-0.6-9.2-2.8C26.9,58,26.5,59.7,27.4,60.5z M39.5,72.6
	c0.8,0.9,2.5,0.5,3.6-0.6c-2.2-2.2-3.1-5.3-2.8-9.2C38.2,66.7,37.7,70.8,39.5,72.6z M27,73.1c1.2,1.2,2.5,0.6,3.5-0.4
	c2.6-2.6,5.7-7.5,15.3-18.2l-0.3-0.3C34.8,63.8,30,66.9,27.4,69.6C26.4,70.6,25.8,71.9,27,73.1z M56.4,91.7
	c2.3-4.8,1.5-9.8-0.9-12.1c-1.2-1.2-3-1.2-4.8,0.4C53.8,83.1,56.7,86.2,56.4,91.7z M69.9,99.2c1.6-1.8,1.6-3.6,0.4-4.8
	C68,92,63,91.2,58.2,93.5C63.7,93.2,66.8,96.1,69.9,99.2z M26.1,65.2c1.4,1.4,4.1,0.3,7.4-2.1c-3.3,0.6-5.4,0.5-7-1
	C25.4,63.2,25.4,64.5,26.1,65.2z M34.8,73.9c0.7,0.7,2,0.7,3.1-0.4c-1.5-1.6-1.6-3.7-1-7C34.5,69.8,33.4,72.5,34.8,73.9z M53.1,94.1
	c1.5-2.4,1.4-6,0.1-7.9c-0.6-0.9-1.5-1.4-2.8-1.1C52.4,87.6,53,90.2,53.1,94.1z M64.8,99.5c0.3-1.3-0.2-2.2-1.1-2.8
	c-1.9-1.3-5.5-1.4-7.9,0.1C59.7,96.9,62.3,97.5,64.8,99.5z M43.5,91.7L43.5,91.7c-0.3-5.5,2.6-8.6,5.7-11.7
	c-1.8-1.6-3.6-1.6-4.8-0.4C42,81.9,41.2,86.9,43.5,91.7z M56.3,100h5.8c-1.7-1-3.7-1.3-6-1.6C56.3,99,56.3,99.5,56.3,100z
	 M48.5,93.9c1.2-0.4,1.9-0.4,3-0.1c-0.3-2.3-0.7-4.4-1.5-6.1C49.1,89.4,48.7,91.5,48.5,93.9z M40.3,87.2L40.3,87.2
	c-0.3-3.9,0.6-7,2.8-9.2c-1.1-1.1-2.8-1.5-3.6-0.6C37.7,79.2,38.2,83.3,40.3,87.2z M46.8,94.1c0.1-3.9,0.7-6.5,2.7-9
	c-1.3-0.3-2.2,0.2-2.8,1.1C45.4,88.1,45.3,91.7,46.8,94.1z M36.9,83.5L36.9,83.5c-0.6-3.3-0.5-5.4,1-7c-1.1-1.1-2.4-1.1-3.1-0.4
	C33.4,77.5,34.5,80.2,36.9,83.5z M45.6,100h0.6c0-0.7,0.5-1.2,3.8-1.2s3.9,0.5,3.9,1.2h0.5c0-3.2-1.4-4.6-4.4-4.6
	S45.6,96.8,45.6,100z M45.5,95.8l0.3-0.3C36.2,84.8,33.1,80,30.4,77.4c-1-1-2.3-1.6-3.5-0.4c-1.2,1.2-0.6,2.5,0.4,3.5
	C29.9,83.1,34.8,86.2,45.5,95.8z M26.5,87.9c1.6-1.5,3.7-1.6,7-1c-3.3-2.4-6-3.5-7.4-2.1C25.4,85.5,25.4,86.8,26.5,87.9z M35.1,99.5
	c2.5-2,5.1-2.6,9-2.7c-2.4-1.5-6-1.4-7.9-0.1C35.3,97.3,34.8,98.2,35.1,99.5z M37.8,100h5.9c0-0.5,0-1,0.2-1.6
	C41.6,98.6,39.5,99.1,37.8,100z M28,93.1c2.2-2.2,5.3-3.1,9.2-2.8c-3.9-2.1-8-2.6-9.8-0.8C26.5,90.3,26.9,92,28,93.1z M30,99.2
	c3.1-3.1,6.2-6,11.7-5.7c-4.8-2.3-9.8-1.5-12.1,0.9C28.4,95.6,28.4,97.4,30,99.2z M95.5,20.9l0.3-0.3C86.2,9.9,83.1,5.1,80.4,2.5
	c-1-1-2.3-1.6-3.5-0.4c-1.2,1.2-0.6,2.5,0.4,3.5C79.9,8.2,84.8,11.3,95.5,20.9z"/>
</svg>
